<svg version="1.1" id="Layer_1" xmlns="http://www.w3.org/2000/svg" xmlns:xlink="http://www.w3.org/1999/xlink" x="0px" y="0px" width="600px" height="599.999px" viewBox="0 0 600 599.999" enable-background="new 0 0 600 599.999" xml:space="preserve"><g><path fill="#001428" d="M176.415,341.578c17.268,0.027,34.063-5.713,47.7-16.294L114.71,215.958 c-26.345,34.104-20.064,83.101,14.011,109.455c13.661,10.563,30.438,16.276,47.694,16.276V341.578L176.415,341.578L176.415,341.578 z"></path><path fill="#001428" d="M501.627,263.532c0-17.226-5.736-33.966-16.324-47.561L375.92,325.29 c34.078,26.378,83.06,20.126,109.412-13.951C495.914,297.64,501.65,280.824,501.627,263.532z"></path><path fill="#001428" d="M556.617,144.52l-48.381,48.399c39.047,46.689,32.883,116.199-13.799,155.263 c-40.919,34.242-100.5,34.242-141.413,0l-53.004,53.033l-53.007-53.033c-46.667,39.07-116.163,32.895-155.205-13.805 c-34.231-40.935-34.231-100.522,0-141.458l-24.871-24.961l-23.517-23.531C-42.394,286.191,2.93,470.719,144.638,556.564 c141.728,85.846,326.175,40.5,411.979-101.262c57.845-95.552,57.845-215.328,0-310.888V144.52L556.617,144.52z"></path><path fill="#001428" d="M517.055,92.938C402.674-26.976,212.799-31.442,92.931,82.979c-3.393,3.246-6.705,6.561-9.951,9.959 c-7.428,7.812-14.433,16.007-20.991,24.573L300.026,355.6L538.122,117.45C531.527,108.91,524.502,100.732,517.055,92.938z M300.012,39.156c69.252-0.356,135.721,27.193,184.43,76.428l-184.43,184.402L115.589,115.584 C164.298,66.353,230.766,38.806,300.012,39.156z"></path></g></svg>